<svg width="163" height="31" viewBox="0 0 163 31" fill="none" xmlns="http://www.w3.org/2000/svg">
<path d="M0 4.13333C0 1.85056 1.85056 0 4.13333 0H26.8667C29.1494 0 31 1.85056 31 4.13333V26.8667C31 29.1494 29.1494 31 26.8667 31H4.13333C1.85056 31 0 29.1494 0 26.8667V4.13333Z" fill="white"/>
<path d="M21.0087 10.5566L17.7262 12.3921L9.99125 8.08917C9.5525 7.84845 9 8.1343 9 8.6007V19.9297C9 20.3961 9.5525 20.6819 9.99125 20.4412L13.2737 18.5907L21.0087 22.9086C21.4475 23.1493 22 22.8635 22 22.3971V11.0681C22 10.6017 21.4475 10.3158 21.0087 10.5566Z" fill="#0C30FA"/>
<path d="M59.0783 9.875C57.4965 9.875 56.1406 10.4561 55.0108 11.586C53.8809 12.7158 53.2998 14.0717 53.2998 15.6535C53.2998 17.2999 53.8809 18.7203 55.043 19.8825C56.2052 21.0447 57.5933 21.658 59.1752 21.658C59.7885 21.658 60.3696 21.5935 60.9184 21.3998C61.4672 21.2383 61.9514 21.0447 62.2743 20.851C62.6294 20.6573 62.9522 20.4313 63.275 20.1408C63.5978 19.8825 63.7915 19.6888 63.8884 19.5597C63.9852 19.4628 64.0498 19.366 64.0821 19.3014L64.0175 19.2691L64.0821 19.3014L64.1144 19.2369L64.1466 19.2046L62.6294 17.6873L62.5648 17.6227L62.5002 17.6873L62.1451 18.107L62.2097 18.1715L62.1451 18.107C61.9192 18.3652 61.5318 18.6558 60.983 18.9463C60.4342 19.2369 59.8531 19.366 59.2075 19.366C58.3358 19.366 57.5611 19.0754 56.9477 18.5266L56.8831 18.5912L56.9477 18.5266C56.3343 17.9778 55.9469 17.3645 55.8178 16.622H64.4372H64.5017V16.5574L64.6309 15.3953H64.5663H64.6309C64.6309 13.8134 64.1144 12.4899 63.049 11.4245C61.9837 10.4238 60.6924 9.875 59.0783 9.875ZM57.0123 12.7481C57.5611 12.2639 58.239 12.0056 59.0783 12.0056C59.9177 12.0056 60.5956 12.2639 61.1444 12.7481C61.6609 13.2001 62.016 13.8134 62.1451 14.5236H55.9147C56.1406 13.8134 56.4957 13.2324 57.0123 12.7481Z" fill="white"/>
<path d="M161.478 11.4568C160.412 10.3915 159.089 9.875 157.507 9.875C155.925 9.875 154.569 10.4561 153.439 11.586C152.31 12.7158 151.729 14.0717 151.729 15.6535C151.729 17.2999 152.31 18.7203 153.472 19.8825C154.634 21.0447 156.022 21.658 157.604 21.658C158.217 21.658 158.798 21.5935 159.347 21.3998C159.896 21.2383 160.38 21.0447 160.703 20.851C161.058 20.6573 161.381 20.4313 161.704 20.1408C162.027 19.8825 162.22 19.6888 162.317 19.5597C162.414 19.4628 162.479 19.366 162.511 19.3014L162.446 19.2691L162.511 19.3014L162.543 19.2369L162.511 19.2046L160.994 17.6873L160.929 17.7519L160.994 17.6873L160.929 17.6227L160.864 17.6873L160.509 18.107L160.574 18.1393L160.509 18.0747C160.283 18.3329 159.896 18.6235 159.347 18.914C158.798 19.2046 158.217 19.3337 157.572 19.3337C156.7 19.3337 155.957 19.0432 155.312 18.4944L155.28 18.5266L155.312 18.4944L155.247 18.5589L155.312 18.4944C154.698 17.9456 154.311 17.3322 154.182 16.5897H162.801H162.866V16.5251L162.995 15.363H162.93H162.995C163.06 13.8457 162.543 12.5221 161.478 11.4568ZM155.441 12.7481C155.99 12.2639 156.668 12.0056 157.507 12.0056C158.346 12.0056 159.024 12.2639 159.573 12.7481C160.09 13.2001 160.445 13.8134 160.574 14.5236H154.343C154.569 13.8134 154.924 13.2324 155.441 12.7481Z" fill="white"/>
<path d="M46.7785 9.90625C46.3911 9.90625 46.0037 9.93853 45.6164 10.0677C45.229 10.1645 44.9062 10.2936 44.6479 10.4228C44.3896 10.5519 44.1637 10.681 43.9377 10.8424C43.7117 11.0038 43.5826 11.133 43.4857 11.1975V10.2291V10.1322H43.4212H41.0646H41V10.1968V21.3664V21.431H41.0646H43.3889H43.4535V21.3664V15.3297C43.4535 14.3289 43.7117 13.5219 44.2282 13.0053C44.7447 12.4565 45.4227 12.166 46.2943 12.166C47.0368 12.166 47.6501 12.4243 48.1344 12.9408C48.6186 13.4573 48.8769 14.1029 48.8769 14.8777V21.3664V21.431H48.9414H51.2658H51.3303V21.3664V14.8777C51.3303 13.3605 50.9107 12.166 50.039 11.2621C49.2643 10.3259 48.1344 9.90625 46.7785 9.90625Z" fill="white"/>
<path d="M124.287 10.1328H124.223L124.191 10.1651L124.287 10.1974L124.191 10.1651L121.705 17.6223L119.219 10.1651L119.155 10.1974L119.219 10.1651V10.1328H119.155H117.056H116.992V10.1651L114.506 17.6223L112.02 10.1651V10.1328H111.956H109.502H109.405L109.438 10.2297L109.502 10.1974L109.438 10.2297L113.279 21.367V21.4316H113.344H115.571H115.603L115.636 21.367L118.121 14.1681L120.575 21.367H120.672H120.575L120.607 21.4316H120.672H122.867H122.932L122.964 21.367H122.867H122.964L126.773 10.2297L126.838 10.1328H126.709H124.287Z" fill="white"/>
<path d="M82.128 16.525L82.1926 16.4927C81.902 16.0408 81.5469 15.718 81.095 15.492C80.6753 15.2983 80.1911 15.1046 79.7069 14.9109C79.2226 14.7495 78.7707 14.5881 78.351 14.4913L78.3187 14.5558L78.351 14.4913C77.9313 14.3944 77.5762 14.233 77.318 14.007C77.0597 13.8133 76.9306 13.5551 76.9306 13.2645C76.9306 12.974 77.0597 12.748 77.318 12.522C77.6085 12.2961 77.9636 12.1992 78.4478 12.1992C78.803 12.1992 79.1581 12.2961 79.5132 12.4575C79.7069 12.5543 79.836 12.6189 79.9651 12.6834C80.0942 12.748 80.1588 12.8126 80.2234 12.8449C80.2879 12.9094 80.3202 12.9417 80.3848 13.0063C80.4171 13.0385 80.4493 13.0708 80.4816 13.1031L80.5462 13.1677L80.6108 13.1031L82.128 11.5858L82.1926 11.5213L82.128 11.4567L82.0635 11.5213L82.128 11.4567L81.9666 11.2953L81.902 11.3599L81.9666 11.2953C81.8698 11.1985 81.7084 11.0693 81.5147 10.9402C81.321 10.7788 81.0627 10.6174 80.8045 10.4883L80.7722 10.5528L80.8045 10.4883C80.5139 10.3268 80.1911 10.1977 79.7391 10.1009C79.3195 10.004 78.8675 9.93945 78.4156 9.93945C77.2534 9.93945 76.3172 10.2623 75.5424 10.9402C74.7677 11.6181 74.3803 12.3929 74.3803 13.2645C74.3803 13.9102 74.5094 14.459 74.8 14.9109C75.0905 15.3629 75.4456 15.718 75.8975 15.9117C76.3172 16.1054 76.8015 16.2991 77.2857 16.4927C77.7699 16.6542 78.2219 16.8156 78.6738 16.9124C79.0935 17.0093 79.4163 17.203 79.7069 17.3967C79.9651 17.5903 80.0942 17.8486 80.0942 18.1391C80.0942 18.5588 79.9328 18.8494 79.6746 19.1076C79.384 19.3336 78.9321 19.4627 78.3187 19.4627C77.8022 19.4627 77.318 19.3336 76.8337 19.1076C76.3495 18.8494 76.0267 18.6557 75.8975 18.4942C75.7361 18.3328 75.6393 18.2037 75.5747 18.1069L75.5102 18.01L75.4456 18.0746L73.9283 19.5918L73.8638 19.6564L73.8961 19.721L74.0575 19.9469C74.1543 20.0761 74.348 20.2698 74.574 20.4635C74.8 20.6572 75.0905 20.8509 75.4133 21.0445C75.7361 21.2382 76.1558 21.3997 76.64 21.5288C77.1566 21.6579 77.6731 21.7225 78.2219 21.7225C79.4809 21.7225 80.5139 21.3674 81.2887 20.6894C82.0635 19.9792 82.4831 19.1722 82.4831 18.1714C82.4831 17.5581 82.3217 17.0093 82.0635 16.525H82.128Z" fill="white"/>
<path d="M90.5529 9.9069C90.1655 9.9069 89.7781 9.93918 89.3907 10.0683C89.0033 10.1652 88.6805 10.2943 88.4223 10.4234C88.164 10.5525 87.938 10.6817 87.712 10.8431C87.4861 11.0045 87.3569 11.1336 87.2601 11.1982V5.06456V5H87.1955H84.8712H84.8066V5.06456V21.3348V21.3994H84.8712H87.1955H87.2601V21.3348V15.3303C87.2601 14.3296 87.5183 13.5225 88.0349 13.006C88.5514 12.4572 89.2293 12.1667 90.1009 12.1667C90.8434 12.1667 91.4568 12.4249 91.941 12.9414C92.4253 13.4579 92.6835 14.1036 92.6835 14.8784V21.3671V21.4317H92.7481H95.0724H95.137V21.3671V14.8784C95.137 13.3611 94.7173 12.1667 93.8457 11.2628C93.0386 10.3266 91.9087 9.9069 90.5529 9.9069Z" fill="white"/>
<path d="M130.001 19.0097L130.066 18.9452C129.743 18.6223 129.388 18.4609 128.936 18.4609C128.516 18.4609 128.129 18.6223 127.806 18.9452C127.483 19.268 127.322 19.6231 127.322 20.0751C127.322 20.4947 127.483 20.8821 127.806 21.1726C128.129 21.4955 128.484 21.6246 128.936 21.6246C129.356 21.6246 129.743 21.4632 130.066 21.1726C130.389 20.8498 130.55 20.4947 130.55 20.0751C130.55 19.6554 130.389 19.268 130.066 18.9452L130.001 19.0097Z" fill="white"/>
<path d="M72.6688 19.2693V19.2047L72.5074 19.237L72.5396 19.3016L72.5074 19.237C72.4105 19.2693 72.2814 19.3339 72.0877 19.3661L72.12 19.4307L72.0877 19.3661C71.894 19.3984 71.7326 19.4307 71.5389 19.4307C71.1515 19.4307 70.861 19.3016 70.6027 19.0433C70.3444 18.7851 70.2153 18.4945 70.2153 18.0748V12.3609H72.4751H72.5396V12.2963V10.198V10.1334H72.4751H70.2153V6.48552V6.38867H70.1508H68.0524H67.9878V6.45324V8.77756C67.9878 9.22951 67.891 9.55233 67.7296 9.77831C67.5682 9.972 67.2776 10.1011 66.9225 10.1011H65.7604H65.6958V10.1657V12.264V12.3286H65.7604H67.7941V18.0748C67.7941 19.237 68.0524 20.1409 68.6012 20.7543C69.15 21.3676 69.9893 21.6582 71.0869 21.6582C71.7326 21.6582 72.2814 21.5936 72.7333 21.4322L72.7979 21.3999V21.3354V19.237V19.1402L72.6688 19.2047V19.2693Z" fill="white"/>
<path d="M103.014 9.875C101.432 9.875 100.044 10.4561 98.8819 11.6505C97.7198 12.8127 97.1387 14.2008 97.1387 15.7827C97.1387 17.3645 97.7198 18.7526 98.8819 19.9148C100.044 21.0769 101.432 21.6903 103.014 21.6903C104.596 21.6903 105.984 21.1092 107.146 19.9148C108.308 18.7526 108.922 17.3645 108.922 15.7827C108.922 14.2008 108.341 12.8127 107.146 11.6505C105.952 10.4561 104.596 9.875 103.014 9.875ZM105.403 18.3652C104.725 19.0754 103.918 19.4305 103.014 19.4305C102.078 19.4305 101.303 19.0754 100.625 18.3652L100.593 18.3975L100.625 18.3652C99.9472 17.655 99.6244 16.8157 99.6244 15.7827C99.6244 14.7496 99.9472 13.9103 100.625 13.2001C101.303 12.4899 102.11 12.1348 103.014 12.1348C103.918 12.1348 104.725 12.4899 105.403 13.2001C106.081 13.9103 106.404 14.7496 106.404 15.7827C106.404 16.8157 106.049 17.655 105.403 18.3652Z" fill="white"/>
<path d="M148.597 11.1977L148.661 11.1331C147.887 10.2937 146.854 9.87408 145.53 9.87408C145.046 9.87408 144.594 9.93864 144.142 10.0678C143.69 10.1969 143.335 10.3583 143.044 10.5197C142.754 10.6811 142.528 10.8748 142.27 11.1008L142.334 11.1654L142.27 11.1008C142.044 11.3268 141.882 11.4882 141.785 11.5528L141.85 11.6173L141.785 11.5528C141.753 11.585 141.721 11.6173 141.688 11.6496L141.624 11.5528C141.559 11.4236 141.43 11.2622 141.237 11.0685L141.172 11.1331L141.237 11.0685C141.043 10.8748 140.849 10.6811 140.591 10.5197C140.333 10.326 140.01 10.1646 139.59 10.0355C139.17 9.90636 138.751 9.8418 138.299 9.8418C137.718 9.8418 137.169 9.97093 136.652 10.2292L136.685 10.2937L136.652 10.2292C136.136 10.4874 135.781 10.7134 135.619 10.8748C135.523 10.9717 135.458 11.0362 135.361 11.1331V10.1646V10.1001H135.297H132.972H132.908V10.1646V21.3343V21.3988H132.972H135.297H135.361V21.3343V15.3298C135.361 14.329 135.619 13.5543 136.071 13.0055C136.556 12.4567 137.137 12.1661 137.815 12.1661C138.525 12.1661 139.041 12.3921 139.461 12.844C139.848 13.296 140.074 13.9739 140.074 14.8778V21.3666V21.4311H140.139H142.463H142.528V21.3666V15.3298C142.528 14.329 142.786 13.5543 143.238 13.0055C143.722 12.4567 144.303 12.1661 144.981 12.1661C145.691 12.1661 146.208 12.3921 146.628 12.844C147.015 13.296 147.241 13.9739 147.241 14.8778V21.3666V21.4311H147.306H149.63H149.694V21.3666V14.8455C149.694 13.2314 149.307 12.0047 148.565 11.1331L148.597 11.1977Z" fill="white"/>
</svg>
